<?xml version="1.0" encoding="utf-8"?>
<!-- Generator: Adobe Illustrator 16.0.0, SVG Export Plug-In . SVG Version: 6.00 Build 0)  -->
<!DOCTYPE svg PUBLIC "-//W3C//DTD SVG 1.1//EN" "http://www.w3.org/Graphics/SVG/1.1/DTD/svg11.dtd">
<svg version="1.1" id="Layer_1" xmlns="http://www.w3.org/2000/svg" xmlns:xlink="http://www.w3.org/1999/xlink" x="0px" y="0px"
	 width="1226px" height="532px" viewBox="0 0 1226 532" enable-background="new 0 0 1226 532" xml:space="preserve">
<g>
	<path d="M71,60.8041992l67.5986328-15.9995117c-11.199707,79.1987305-12.7998047,149.5976563-0.7998047,228.796875
		c8.3999023,55.9980469,100.3984375,47.1992188,128.7978516-0.8007813L272.1967773,340l-156.3974609,8L71,60.8041992z"/>
	<path d="M406.5932617,313.2011719C344.5942383,370,276.9951172,321.2001953,274.5952148,243.6015625
		c-0.3999023-14.3999023,0.3999023-81.5986328-11.9995117-93.9985352l65.5986328-7.199707
		c1.2001953,38.3994141-50.3989258,161.9970703,29.9995117,161.9970703c75.9990234,0,35.199707-129.1977539,18-165.597168
		c21.5996094-4,41.1992188-5.199707,63.9990234-5.199707c-4.3999023,43.5991211-11.199707,96.3984375,7.199707,198.796875
		l-33.1992188,4.4003906L406.5932617,313.2011719z"/>
	<path d="M548.1943359,126.4033203c23.1992188,0,41.1992188,7.6000977,54.3994141,20
		c-0.4003906-26.3999023-1.6005859-53.5996094-3.6005859-81.9990234h57.9990234
		c-29.1992188,175.597168-25.5996094,227.1972656-12.7998047,275.1953125l-54.3984375,2.8007813l2-14.8007813
		c-12.7998047,8.8007813-28.7998047,14-47.5996094,14c-2.4003906,0-15.2001953-0.3994141-17.5996094-0.3994141
		c-47.9990234-13.6005859-70.7988281-58.7998047-70.7988281-104.3984375c0-3.2001953,0-6.7998047,0.3994141-10
		C459.3955078,177.6025391,491.7949219,126.4033203,548.1943359,126.4033203z M551.3945313,314.8007813
		c31.9990234,0,36.7988281-45.1992188,38.3994141-65.9990234c2-28.7998047-0.7998047-93.5986328-43.5996094-93.5986328
		c-34.3994141,0-40.7998047,42.7993164-41.9990234,66.7988281
		C501.7949219,253.6015625,504.5947266,314.8007813,551.3945313,314.8007813z"/>
	<path d="M749.7949219,110.003418c51.1992188,0,70.7988281,48.3994141,74.7988281,92.7988281l-114.7978516,25.5996094
		c0,25.9995117,4.7998047,48.3989258,17.5996094,71.1987305c18,32.7998047,77.1982422,26.3994141,77.9990234-16.3994141v-1.5996094
		c-5.6005859,6.7988281-12.4003906,8.3994141-20.7998047,8.3994141c-17.2001953,0-28.3994141-9.2001953-28.3994141-26.7998047
		c1.5996094-17.199707,15.5996094-35.1992188,33.5986328-35.1992188h2.4003906
		c22.3994141,0,39.1992188,13.5996094,39.1992188,36.3994141c0,39.5986328-23.5996094,79.9990234-67.1992188,79.9990234h-3.5996094
		c-70.3984375,0-92.7988281-69.5996094-95.1982422-129.1982422
		C665.3964844,168.402832,696.9960938,110.003418,749.7949219,110.003418z M712.1953125,203.6020508l80.3994141-11.199707
		c0-19.5996094-16-49.5991211-38.3994141-49.5991211C727.7949219,142.8032227,712.1953125,181.2026367,712.1953125,203.6020508z"/>
	<path d="M773.796875,365.5996094c28.7988281,0,50.7988281,18.7998047,50.7988281,46.3994141
		c0,34.7998047-39.9990234,43.9990234-58.3994141,16.3994141c-8.3994141,28.4003906,14.7998047,54.3994141,42.7998047,54.3994141h4
		c55.9990234-5.2001953,56.7988281-106.3984375,56.7988281-145.1982422v-3.1992188
		c0-33.1992188-7.5996094-122.7983398-10.7998047-147.9980469l-21.2001953,1.6000977l-16.7988281-39.5996094l102.3984375-9.9995117
		l-0.4003906,39.1992188l-23.1992188,3.6000977c4.3994141,180.3969727,42.3984375,326.7954102-85.9990234,326.7954102
		c-47.5996094,0-88.3984375-37.2001953-88.3984375-85.5996094C725.3974609,392,738.1972656,365.5996094,773.796875,365.5996094z
		 M868.5947266,37.6044922c25.2001953,0,41.5996094,16,41.5996094,34.7998047s-16.3994141,34.7993164-41.5996094,34.7993164
		c-25.1992188,0-42.7988281-15.9995117-42.7988281-34.7993164S843.3955078,37.6044922,868.5947266,37.6044922z"/>
	<path d="M1027.7929688,116.8037109c49.5996094,0,70.3984375,44.7993164,75.1992188,88.3984375
		c1.1992188,9.199707,1.5996094,18,1.5996094,25.9995117c0,155.9975586-179.9970703,141.9975586-179.9970703,5.6000977
		C924.5947266,152.402832,961.7939453,116.8037109,1027.7929688,116.8037109z M1064.5927734,223.2021484v-4.4003906
		c0-94.3984375-101.5986328-90.7983398-101.5986328,2.800293
		C962.9941406,319.2001953,1064.5927734,355.5996094,1064.5927734,223.2021484z"/>
</g>
</svg>
